<svg viewBox="0 0 512 512" xml:space="preserve" xmlns="http://www.w3.org/2000/svg"><path d="M320.216 394.298a7.688 7.688 0 0 1-7.245-10.247l28.2-79.453-303.552 20.82c-2.31.104-4.503-.706-6.071-2.354a7.66 7.66 0 0 1-2.085-6.166l14.932-132.94a7.67 7.67 0 0 1 2.876-5.174 7.726 7.726 0 0 1 5.704-1.59l296.924 37.027-18.238-87.27a7.682 7.682 0 0 1 3.81-8.288c2.94-1.635 6.606-1.147 9.037 1.185l135.726 130.619a7.707 7.707 0 0 1 2.348 5.782 7.633 7.633 0 0 1-2.723 5.614L325.165 392.481a7.68 7.68 0 0 1-4.949 1.817zm32.099-105.84a7.66 7.66 0 0 1 6.119 3.029 7.693 7.693 0 0 1 1.126 7.216l-22.62 63.733 126.501-106.809L351.79 148.176l15.345 73.424a7.673 7.673 0 0 1-1.874 6.773c-1.673 1.83-4.141 2.707-6.594 2.415L58.791 193.393 45.753 309.458l306.037-20.985c.181-.015.36-.015.525-.015z" fill="#2954ad" class="fill-231f20"></path></svg>