<svg viewBox="0 0 512 512" xml:space="preserve" xmlns="http://www.w3.org/2000/svg"><g fill="#ee5b9f" class="fill-231f20"><path d="M76.144 282.827a8.319 8.319 0 0 1-8.311-8.003 7.803 7.803 0 0 1 .097-1.634l-28.022-.162a8.314 8.314 0 0 1-8.239-7.621 8.309 8.309 0 0 1 6.841-8.889l48.569-8.563a7.084 7.084 0 0 1 1.78-.122l1.431.057-14.357-34.522a8.34 8.34 0 0 1 1.122-8.312c1.844-2.364 4.77-3.534 7.791-3.111l312.574 46.473 69.645-3.843c4.737-.414 8.515 3.25 8.766 7.848.26 4.583-3.258 8.507-7.839 8.759l-14.479.804c.105.448.179.918.212 1.39a8.318 8.318 0 0 1-5.924 8.564l-18.962 5.646c-.887.26-1.796.422-2.705.341l-40.437-1.609-309.373 6.509h-.18zm32.465-34.197 165.647 6.597 40.681-2.25-217.986-32.41 11.658 28.063z"></path><path d="M326.182 349.539a8.337 8.337 0 0 1-7.174-4.087 8.322 8.322 0 0 1 2.705-11.253l121.261-76.989c-73.529-33.555-122.098-55.483-129.702-58.555a8.789 8.789 0 0 1-4.193-2.298 8.335 8.335 0 0 1-2.015-3.218c-1.512-2.332-7.944-11.902-13.722-20.353a8.314 8.314 0 0 1 .569-10.131c2.452-2.86 6.547-3.689 9.935-2.048l169.14 82.23a8.311 8.311 0 0 1 4.664 7.011 8.281 8.281 0 0 1-1.039 4.534 8.306 8.306 0 0 1 3.746 6.653 8.32 8.32 0 0 1-4.314 7.597L330.17 348.516a8.246 8.246 0 0 1-3.988 1.023z"></path><path d="M301.563 352.228a8.31 8.31 0 0 1-7.377-4.453c-2.137-4.07-.56-9.1 3.502-11.235l154.295-80.93-148.16-69.449c-4.16-1.95-5.949-6.906-3.999-11.066a8.31 8.31 0 0 1 11.065-3.998l163.339 76.559a8.32 8.32 0 0 1 4.786 7.345 8.338 8.338 0 0 1-4.453 7.556l-169.14 88.721a8.36 8.36 0 0 1-3.858.95z"></path></g></svg>